<svg width="70" height="70" viewBox="0 0 70 70" fill="none" xmlns="http://www.w3.org/2000/svg">
<circle cx="35" cy="35" r="35" fill="url(#paint0_linear_233_3)"/>
<path d="M52.6105 23.9904C53.3018 25.1878 53.2092 26.6136 52.3677 27.711L33.894 51.8182C33.1321 52.8123 31.8776 53.3191 30.5948 53.0729C29.3387 52.8313 28.3427 51.9156 27.9971 50.6841L25.2635 40.9555L24.9789 39.9435L24.2449 39.191L17.1864 31.9595C16.2927 31.0444 15.9977 29.724 16.4166 28.5154C16.8311 27.3206 17.8708 26.4536 19.1527 26.2856L49.267 22.3404C50.6381 22.1604 51.9192 22.793 52.6105 23.9904Z" fill="white"/>
<path d="M36.2231 33.4515C36.5043 33.9385 36.3379 34.5616 35.8503 34.8431L25.2636 40.9553L24.9789 39.9434L24.2449 39.1909L34.8316 33.0787C35.3192 32.7973 35.942 32.9646 36.2231 33.4515Z" fill="url(#paint1_linear_233_3)"/>
<defs>
<linearGradient id="paint0_linear_233_3" x1="49.6467" y1="1.96393" x2="19.564" y2="77.7643" gradientUnits="userSpaceOnUse">
<stop stop-color="#747DEF"/>
<stop offset="1" stop-color="#5E3BE1"/>
</linearGradient>
<linearGradient id="paint1_linear_233_3" x1="32.4077" y1="34.5441" x2="33.5452" y2="36.8251" gradientUnits="userSpaceOnUse">
<stop stop-color="#747DEF"/>
<stop offset="1" stop-color="#5E3BE1"/>
</linearGradient>
</defs>
</svg>
